<?xml version="1.0" standalone="no"?>
<!DOCTYPE svg PUBLIC "-//W3C//DTD SVG 20010904//EN"
 "http://www.w3.org/TR/2001/REC-SVG-20010904/DTD/svg10.dtd">
<svg version="1.0" xmlns="http://www.w3.org/2000/svg"
 width="1250.000000pt" height="1250.000000pt" viewBox="0 0 1250.000000 1250.000000"
 preserveAspectRatio="xMidYMid meet">

<g transform="translate(0.000000,1250.000000) scale(0.100000,-0.100000)"
fill="#000000" stroke="none">
<path d="M5380 12485 c-406 -65 -754 -315 -940 -677 -99 -191 -140 -365 -140
-589 0 -355 131 -667 385 -915 394 -383 985 -469 1479 -216 297 152 528 428
630 752 45 140 59 256 53 430 -6 167 -22 251 -76 399 -205 562 -798 909 -1391
816z"/>
<path d="M4659 9720 c-141 -24 -275 -152 -370 -354 l-40 -86 -265 -2367 c-145
-1302 -271 -2390 -279 -2417 -8 -27 -15 -84 -15 -127 0 -194 105 -345 280
-400 54 -18 100 -22 282 -26 l218 -6 2 -1671 3 -1671 28 -80 c42 -119 100
-210 191 -300 130 -129 291 -201 476 -212 365 -22 691 221 775 579 13 54 15
294 15 1711 l0 1647 1243 0 c776 0 1268 4 1312 10 160 23 243 129 283 355 14
80 14 161 4 755 -8 434 -18 715 -27 810 -99 961 -567 1954 -1381 2930 -166
200 -280 324 -562 617 -272 281 -281 287 -425 303 -97 12 -1681 11 -1748 0z
m2446 -2861 c67 -20 143 -65 193 -112 l32 -31 33 31 c168 161 449 183 648 50
106 -70 182 -174 221 -300 17 -59 20 -86 15 -190 -8 -192 -58 -341 -177 -519
-120 -180 -255 -319 -455 -468 -104 -78 -266 -180 -284 -180 -23 0 -182 101
-306 194 -389 293 -614 654 -616 991 -1 55 4 122 10 150 29 122 119 249 231
323 131 88 295 110 455 61z"/>
</g>
</svg>
